<?xml version="1.0" encoding="utf-8"?>
<!-- Generator: Adobe Illustrator 22.0.1, SVG Export Plug-In . SVG Version: 6.00 Build 0)  -->
<svg version="1.1" id="Слой_1" xmlns="http://www.w3.org/2000/svg" xmlns:xlink="http://www.w3.org/1999/xlink" x="0px" y="0px"
	 viewBox="0 0 22 22" style="enable-background:new 0 0 22 22;" xml:space="preserve">
<style type="text/css">
	.st0{fill:#506BE2;}
</style>
<path class="st0" d="M19.1,11H16V8.5C16,7.1,17.1,6,18.5,6h0.3c0.5,0,0.9-0.4,0.9-0.9V3.2c0-0.5-0.4-0.9-0.9-0.9h-0.3
	c-3.5,0-6.3,2.8-6.3,6.3v9.4c0,1,0.8,1.9,1.9,1.9h5c1,0,1.9-0.8,1.9-1.9v-5C21,11.8,20.2,11,19.1,11z M7.9,11H4.8V8.5
	C4.8,7.1,5.9,6,7.3,6h0.3c0.5,0,0.9-0.4,0.9-0.9V3.2c0-0.5-0.4-0.9-0.9-0.9H7.3C3.8,2.3,1,5,1,8.5v9.4c0,1,0.8,1.9,1.9,1.9h5
	c1,0,1.9-0.8,1.9-1.9v-5C9.8,11.8,8.9,11,7.9,11z"/>
</svg>
